<?xml version="1.0" encoding="iso-8859-1"?>
<!-- Generator: Adobe Illustrator 16.0.0, SVG Export Plug-In . SVG Version: 6.00 Build 0)  -->
<!DOCTYPE svg PUBLIC "-//W3C//DTD SVG 1.1//EN" "http://www.w3.org/Graphics/SVG/1.1/DTD/svg11.dtd">
<svg version="1.1" id="Capa_1" xmlns="http://www.w3.org/2000/svg" xmlns:xlink="http://www.w3.org/1999/xlink" x="0px" y="0px"
	 width="641.854px" height="641.854px" viewBox="0 0 641.854 641.854" style="enable-background:new 0 0 641.854 641.854;"
	 xml:space="preserve">
<g>
	<g id="Cloud_x5F_Sun_x5F_Wind">
		<g>
			<path d="M245.382,142.715c4.061,4.045,9.658,6.553,15.837,6.553c12.36,0,22.391-10.031,22.391-22.39
				c0-6.18-2.508-11.777-6.568-15.837l-29.854-29.854c-4.045-4.045-9.643-6.553-15.822-6.553c-12.359,0-22.39,10.031-22.39,22.39
				c0,6.18,2.508,11.777,6.553,15.822L245.382,142.715z M604.536,223.902h-44.78c-12.359,0-22.39,10.031-22.39,22.39
				s10.03,22.39,22.39,22.39h44.78c12.359,0,22.391-10.031,22.391-22.39S616.896,223.902,604.536,223.902z M380.634,89.561
				c12.359,0,22.391-10.031,22.391-22.39V22.39c0-12.359-10.031-22.39-22.391-22.39s-22.39,10.031-22.39,22.39v44.781
				C358.244,79.53,368.274,89.561,380.634,89.561z M500.049,149.268c6.18,0,11.777-2.507,15.837-6.553l29.854-29.854
				c4.046-4.06,6.554-9.658,6.554-15.837c0-12.359-10.031-22.39-22.391-22.39c-6.18,0-11.777,2.507-15.822,6.568l-29.854,29.854
				c-4.061,4.045-6.568,9.643-6.568,15.822C477.658,139.237,487.689,149.268,500.049,149.268z M231.366,208.976
				c37.541,0,72.41,18.733,93.278,50.094l7.314,10.986l13.165-1.075c1.866-0.149,3.747-0.299,5.657-0.299
				c37.033,0,67.171,30.138,67.171,67.171c0,12.359,10.031,22.391,22.391,22.391c9.538,0,17.613-5.971,20.838-14.375
				c28.167-23.256,46.332-58.2,46.332-97.577c0-70.051-56.812-126.878-126.878-126.878c-42.094,0-79.336,20.584-102.398,52.154
				c-14.986-4.687-30.719-7.374-46.87-7.374c-83.232,0-151.507,65.2-156.448,147.208c-36.436,19.121-59.991,57.14-59.991,99.084
				c0,61.738,50.214,111.951,111.951,111.951c12.375,0,22.39-10.03,22.39-22.39s-10.016-22.391-22.39-22.391
				c-37.033,0-67.171-30.122-67.171-67.171c0-28.436,18.077-53.87,44.99-63.319l15.599-5.478l-0.881-20.764
				C119.415,259.189,169.628,208.976,231.366,208.976z M380.634,164.195c45.273,0,82.098,36.824,82.098,82.097
				c0,14.957-4.209,28.869-11.255,40.93c-17.644-36.362-54.289-61.872-97.024-63.26c-9.956-12.658-21.778-23.345-34.779-32.242
				C334.704,174.913,356.378,164.195,380.634,164.195z M455.269,373.171c-17.942,0-34.81,6.985-47.497,19.674
				c-8.747,8.747-8.747,22.912,0,31.659s22.912,8.747,31.659,0c4.239-4.225,9.867-6.553,15.838-6.553
				c12.344,0,22.39,10.046,22.39,22.391c0,12.344-10.046,22.39-22.39,22.39H231.366c-12.375,0-22.39,10.031-22.39,22.391
				s10.016,22.39,22.39,22.39h223.903c37.033,0,67.17-30.137,67.17-67.17C522.438,403.308,492.302,373.171,455.269,373.171z
				 M403.024,522.438H201.512c-12.375,0-22.39,10.031-22.39,22.391s10.016,22.391,22.39,22.391h201.512
				c8.239,0,14.927,6.687,14.927,14.927c0,8.239-6.688,14.927-14.927,14.927c-4.717,0-9.061-2.149-11.912-5.926
				c-7.478-9.882-21.494-11.822-31.361-4.359c-9.866,7.449-11.821,21.495-4.358,31.361c11.374,15.062,28.734,23.704,47.632,23.704
				c32.929,0,59.707-26.778,59.707-59.707S435.953,522.438,403.024,522.438z"/>
		</g>
	</g>
</g>
<g>
</g>
<g>
</g>
<g>
</g>
<g>
</g>
<g>
</g>
<g>
</g>
<g>
</g>
<g>
</g>
<g>
</g>
<g>
</g>
<g>
</g>
<g>
</g>
<g>
</g>
<g>
</g>
<g>
</g>
</svg>
